{"title":"Aozora Musume aka The Blue Sky Maiden (1957)","uid":9722378,"size":1342018368,"categoryP":"video","categoryS":"movies","magnet":"?xt=urn:btih:b4d678b9d01088662f45667b47afd3f5805566c2&amp;dn=Aozora+Musume+aka+The+Blue+Sky+Maiden+%281957%29&amp;tr=udp%3A%2F%2Ftracker.openbittorrent.com%3A80&amp;tr=udp%3A%2F%2Fopen.demonii.com%3A1337&amp;tr=udp%3A%2F%2Ftracker.coppersurfer.tk%3A6969&amp;tr=udp%3A%2F%2Fexodus.desync.com%3A6969","seeders":2,"leechers":0,"uploader":"cavallone","files":1,"time":1394251811,"description":"Plot: Early Masumura is contemporary with late Douglas Sirk -- both harnessed garish fifties modernism for a scathing, full-color portrait of ambition in the new middle class. In Blue Sky Maiden, Ayako Wakao plays good-natured Yuko, the illegitimate daughter of a well-off executive, raised in the country by relatives. Journeying to Tokyo she finds Father's Western-style house to be a nest of vipers straight out of There's Always Tomorrow, replete with Terrible Children, a housekeeper who sees all, and a dog named Cal with his own doghouse. But Yuko meets it all with aplomb; she's interested in one thing only, finding her real, cast off mother. While digging Blue Sky Maiden's echt-fifties Japan (look for the Sun Tribe-following big brother, and the nightclub singer's hand-print frock), we experience what James Quandt meant when he said, &quot;Even at its most berserk and genre-bound, Masumura's cinema is semiotically rich and sophisticated.&quot;\n\nRip Specs:\n\nFormat                                   : Matroska\nFormat version                           : Version 2\nFile size                                : 1.25 GiB\nDuration                                 : 1h 28mn\nOverall bit rate                         : 2 025 Kbps\nWriting application                      : HandBrake 0.9.9\nWriting library                          : libmkv 0.6.5\n\nVideo\nID                                       : 1\nFormat                                   : AVC\nFormat/Info                              : Advanced Video Codec\nFormat profile                           : &lt;a class=&quot;__cf_email__&quot; href=&quot;/cdn-cgi/l/email-protection&quot; data-cfemail=&quot;266e4f414e666a150816&quot;&gt;[email&amp;#160;protected]&lt;/a&gt;&lt;script cf-hash='f9e31' type=&quot;text/javascript&quot;&gt;\n/* &lt;![CDATA[ */!function(){try{var t=&quot;currentScript&quot;in document?document.currentScript:function(){for(var t=document.getElementsByTagName(&quot;script&quot;),e=t.length;e--;)if(t[e].getAttribute(&quot;cf-hash&quot;))return t[e]}();if(t&amp;&amp;t.previousSibling){var e,r,n,i,c=t.previousSibling,a=c.getAttribute(&quot;data-cfemail&quot;);if(a){for(e=&quot;&quot;,r=parseInt(a.substr(0,2),16),n=2;a.length-n;n+=2)i=parseInt(a.substr(n,2),16)^r,e+=String.fromCharCode(i);e=document.createTextNode(e),c.parentNode.replaceChild(e,c)}}}catch(u){}}();/* ]]&gt; */&lt;/script&gt;\nFormat settings, CABAC                   : Yes\nFormat settings, ReFrames                : 4 frames\nCodec ID                                 : V_MPEG4/ISO/AVC\nDuration                                 : 1h 28mn\nBit rate                                 : 1 820 Kbps\nWidth                                    : 714 pixels\nHeight                                   : 478 pixels\nDisplay aspect ratio                     : 4:3\nOriginal display aspect ratio            : 4:3\nFrame rate mode                          : Constant\nFrame rate                               : 23.976 fps\nColor space                              : YUV\nChroma subsampling                       : 4:2:0\nBit depth                                : 8 bits\nScan type                                : Progressive\nBits/(Pixel*Frame)                       : 0.222\nStream size                              : 1.11 GiB (89%)\nWriting library                          : x264 core 130 r2273 b3065e6\nEncoding settings                        : cabac=1 / ref=3 / deblock=1:-2:-2 / analyse=0x3:0x113 / me=hex / subme=7 / psy=1 / psy_rd=1.00:0.00 / mixed_ref=1 / me_range=16 / chroma_me=1 / trellis=2 / 8x8dct=1 / cqm=0 / deadzone=21,11 / fast_pskip=0 / chroma_qp_offset=-2 / threads=3 / lookahead_threads=1 / sliced_threads=0 / nr=0 / decimate=1 / interlaced=0 / bluray_compat=0 / constrained_intra=0 / bframes=3 / b_pyramid=2 / b_adapt=2 / b_bias=0 / direct=3 / weightb=1 / open_gop=0 / weightp=2 / keyint=240 / keyint_min=24 / scenecut=40 / intra_refresh=0 / rc_lookahead=60 / rc=2pass / mbtree=1 / bitrate=1820 / ratetol=1.0 / qcomp=0.60 / qpmin=0 / qpmax=69 / qpstep=4 / cplxblur=20.0 / qblur=0.5 / ip_ratio=1.40 / aq=1:1.00\nLanguage                                 : English\nDefault                                  : Yes\nForced                                   : No\nColor primaries                          : BT.601 NTSC\nTransfer characteristics                 : BT.709\nMatrix coefficients                      : BT.601\n\nAudio\nID                                       : 2\nFormat                                   : AC-3\nFormat/Info                              : Audio Coding 3\nMode extension                           : CM (complete main)\nFormat settings, Endianness              : Big\nCodec ID                                 : A_AC3\nDuration                                 : 1h 28mn\nBit rate mode                            : Constant\nBit rate                                 : 192 Kbps\nChannel(s)                               : 2 channels\nChannel positions                        : Front: L R\nSampling rate                            : 48.0 KHz\nBit depth                                : 16 bits\nCompression mode                         : Lossy\nStream size                              : 121 MiB (9%)\nLanguage                                 : Japanese\nDefault                                  : Yes\nForced                                   : No\n\nText\nID                                       : 3\nFormat                                   : VobSub\nCodec ID                                 : S_VOBSUB\nCodec ID/Info                            : The same subtitle format used on DVDs\nLanguage                                 : English\nDefault                                  : No\nForced                                   : No\n\nMenu\n00:00:00.000                             : Chapter 1\n00:07:19.814                             : Chapter 2\n00:14:38.919                             : Chapter 3\n00:21:10.102                             : Chapter 4\n00:27:05.123                             : Chapter 5\n00:32:25.652                             : Chapter 6\n00:40:34.807                             : Chapter 7\n00:50:18.849                             : Chapter 8\n00:57:18.601                             : Chapter 9\n01:10:59.255                             : Chapter 10\n01:20:24.319                             : Chapter 11\n01:26:21.718                             : Chapter 12\n01:28:09.033                             : Chapter 13\n\n\nMy rip, enjoy!","torrent":{"xt":"urn:btih:b4d678b9d01088662f45667b47afd3f5805566c2","amp;dn":"Aozora+Musume+aka+The+Blue+Sky+Maiden+%281957%29","amp;tr":["udp%3A%2F%2Ftracker.openbittorrent.com%3A80","udp%3A%2F%2Fopen.demonii.com%3A1337","udp%3A%2F%2Ftracker.coppersurfer.tk%3A6969","udp%3A%2F%2Fexodus.desync.com%3A6969"],"infoHash":"b4d678b9d01088662f45667b47afd3f5805566c2","infoHashBuffer":{"type":"Buffer","data":[180,214,120,185,208,16,136,102,47,69,102,123,71,175,211,245,128,85,102,194]},"announce":[],"urlList":[]}}